HIERARCHY
ROOT Hips
{
	OFFSET -32.860001 56.121803 44.745396
	CHANNELS 6 Xposition Yposition Zposition Zrotation Xrotation Yrotation
	JOINT Chest
	{
		OFFSET -0.637402 0.831600 5.390099
		CHANNELS 6 Xposition Yposition Zposition Zrotation Xrotation Yrotation
		JOINT Chest2
		{
			OFFSET 0.000000 0.000000 4.429901
			CHANNELS 6 Xposition Yposition Zposition Zrotation Xrotation Yrotation
			JOINT Neck
			{
				OFFSET 0.000000 0.000000 10.301395
				CHANNELS 6 Xposition Yposition Zposition Zrotation Xrotation Yrotation
				JOINT Head
				{
					OFFSET 0.000000 0.000000 2.173897
					CHANNELS 6 Xposition Yposition Zposition Zrotation Xrotation Yrotation
					End Site
					{
						OFFSET 0.000000 0.000000 8.298004
					}
				}
			}
			JOINT LeftCollar
			{
				OFFSET 2.142401 -0.572701 5.717800
				CHANNELS 6 Xposition Yposition Zposition Zrotation Xrotation Yrotation
				JOINT LeftShoulder
				{
					OFFSET 5.674000 0.000000 0.000000
					CHANNELS 6 Xposition Yposition Zposition Zrotation Xrotation Yrotation
					JOINT LeftElbow
					{
						OFFSET 0.000000 0.000000 -12.238701
						CHANNELS 6 Xposition Yposition Zposition Zrotation Xrotation Yrotation
						JOINT LeftWrist
						{
							OFFSET 0.000000 0.000000 -10.253700
							CHANNELS 6 Xposition Yposition Zposition Zrotation Xrotation Yrotation
							End Site
							{
								OFFSET 0.000000 0.000000 -2.173901
							}
						}
					}
				}
			}
			JOINT RightCollar
			{
				OFFSET -2.882599 -1.580101 6.695801
				CHANNELS 6 Xposition Yposition Zposition Zrotation Xrotation Yrotation
				JOINT RightShoulder
				{
					OFFSET -4.235600 0.000000 0.000000
					CHANNELS 6 Xposition Yposition Zposition Zrotation Xrotation Yrotation
					JOINT RightElbow
					{
						OFFSET 0.000000 0.000000 -10.709900
						CHANNELS 6 Xposition Yposition Zposition Zrotation Xrotation Yrotation
						JOINT RightWrist
						{
							OFFSET 0.000000 0.000000 -11.716801
							CHANNELS 6 Xposition Yposition Zposition Zrotation Xrotation Yrotation
							End Site
							{
								OFFSET 0.000000 0.000000 -2.173901
							}
						}
					}
				}
			}
		}
	}
	JOINT LeftHip
	{
		OFFSET 2.279499 0.210400 -2.475502
		CHANNELS 6 Xposition Yposition Zposition Zrotation Xrotation Yrotation
		JOINT LeftKnee
		{
			OFFSET 0.000000 -0.000004 -20.742800
			CHANNELS 6 Xposition Yposition Zposition Zrotation Xrotation Yrotation
			JOINT LeftAnkle
			{
				OFFSET 0.000000 0.000000 -16.666000
				CHANNELS 6 Xposition Yposition Zposition Zrotation Xrotation Yrotation
				End Site
				{
					OFFSET 0.000000 -8.310898 0.000000
				}
			}
		}
	}
	JOINT RightHip
	{
		OFFSET -1.961899 0.232300 -2.727402
		CHANNELS 6 Xposition Yposition Zposition Zrotation Xrotation Yrotation
		JOINT RightKnee
		{
			OFFSET 0.000000 -0.000004 -20.526800
			CHANNELS 6 Xposition Yposition Zposition Zrotation Xrotation Yrotation
			JOINT RightAnkle
			{
				OFFSET 0.000000 0.000000 -16.867300
				CHANNELS 6 Xposition Yposition Zposition Zrotation Xrotation Yrotation
				End Site
				{
					OFFSET 0.000000 -7.186401 0.000000
				}
			}
		}
	}
}
MOTION
Frames: 6
Frame Time: 0.041667
44.951111 21.202507 29.497591 1157.083441 -23.883718 -10.312758 -0.637400 0.831602 5.390099 38.702396 9.836143 -4.093026 -0.000000 -0.000005 4.429894 -9.377270 -1.480019 0.134561 0.000001 0.000002 10.301394 331.274748 13.301666 11.054242 -0.000001 0.000008 2.173900 -360.853019 0.028027 -4.158243 2.142398 -0.572697 5.717802 -5.351139 9.814229 1.502034 5.674003 -0.000007 0.000009 161.911656 -213.121273 168.207943 0.000008 0.000000 -12.238696 -567.996236 -148.686415 -181.378747 -0.000002 0.000007 -10.253696 929.760102 72.819017 -66.643167 -2.882595 -1.580096 6.695798 19.303505 10.407308 -31.649799 -4.235608 0.000002 0.000005 -136.645338 207.185087 -82.637571 0.000001 -0.000004 -10.709900 143.898685 -158.678668 159.945299 -0.000004 0.000001 -11.716795 88.879367 16.744023 56.541904 2.279497 0.210409 -2.475504 410.847872 -34.079465 53.789263 -0.000006 -0.000007 -20.742794 196.473902 -20.986992 72.746323 -0.000010 0.000006 -16.666000 -295.793472 12.219015 38.864815 -1.961905 0.232301 -2.727400 -987.236089 32.387251 -42.898164 -0.000004 -0.000001 -20.526802 897.036829 149.691068 -252.300850 0.000005 0.000002 -16.867302 -38.330421 5.070454 -12.829462
44.948708 21.209801 29.508690 1157.094260 -23.870102 -10.338556 -0.637406 0.831590 5.390102 38.530822 9.952462 -4.017623 0.000001 0.000006 4.429898 -9.392139 -1.497867 0.154837 0.000003 0.000008 10.301400 331.305593 13.399173 11.080256 -0.000003 0.000002 2.173896 -360.977547 0.049162 -3.944336 2.142396 -0.572695 5.717799 -5.236137 9.622077 1.471987 5.674001 0.000005 0.000000 161.877628 -213.315359 168.325545 0.000002 0.000005 -12.238695 -568.262450 -148.728080 -181.445314 0.000001 -0.000004 -10.253703 930.513171 72.680897 -67.163832 -2.882601 -1.580095 6.695802 18.847402 10.064065 -31.469888 -4.235602 0.000000 0.000001 -136.673629 206.843646 -83.159916 -0.000000 0.000010 -10.709904 143.679327 -158.681482 159.792494 -0.000007 -0.000005 -11.716806 88.969375 16.827184 56.611815 2.279494 0.210403 -2.475504 410.829267 -34.015507 53.829923 -0.000008 -0.000009 -20.742805 196.392746 -21.032041 72.750954 -0.000008 0.000004 -16.666002 -295.653317 12.228141 38.880541 -1.961901 0.232294 -2.727400 -987.000803 32.332418 -43.013574 -0.000004 0.000001 -20.526798 896.815531 149.915426 -252.291178 -0.000002 -0.000000 -16.867298 -38.321210 5.044365 -12.990513
44.948601 21.216499 29.516790 1157.103440 -23.875908 -10.347840 -0.637401 0.831597 5.390098 38.412349 10.075246 -3.904675 -0.000001 0.000004 4.429897 -9.470620 -1.511003 0.115458 0.000000 0.000004 10.301397 331.468397 13.521778 11.019644 -0.000001 -0.000002 2.173898 -361.016479 0.107333 -4.025430 2.142402 -0.572695 5.717802 -5.095853 9.412570 1.431963 5.674002 -0.000002 0.000005 161.906465 -213.450378 168.454827 0.000008 0.000009 -12.238698 -568.564290 -148.938217 -181.494409 -0.000002 0.000003 -10.253704 930.473501 72.857915 -66.945580 -2.882605 -1.580097 6.695796 18.265777 9.598887 -31.269473 -4.235605 0.000000 -0.000005 -136.764689 206.398413 -83.858658 0.000003 0.000006 -10.709898 143.187703 -158.724417 159.499998 -0.000004 0.000004 -11.716797 89.198282 16.996781 56.801837 2.279496 0.210410 -2.475498 410.816590 -33.952242 53.852992 0.000001 -0.000000 -20.742802 196.343760 -21.018480 72.782243 -0.000002 0.000006 -16.666002 -295.584332 12.255945 38.868718 -1.961898 0.232298 -2.727396 -986.767156 32.267665 -43.151629 -0.000001 -0.000008 -20.526808 896.606145 150.135317 -252.281261 -0.000002 0.000008 -16.867302 -38.326947 5.008639 -13.152275
44.951309 21.223099 29.521591 1157.114150 -23.912953 -10.334740 -0.637403 0.831605 5.390097 38.297543 10.202995 -3.856380 -0.000001 0.000004 4.429897 -9.560167 -1.529172 0.104287 -0.000005 -0.000006 10.301396 331.732698 13.682226 10.889474 0.000002 0.000000 2.173909 -361.197370 0.194451 -3.996104 2.142395 -0.572703 5.717800 -4.968452 9.204278 1.425546 5.674001 -0.000002 -0.000002 162.103325 -213.549922 168.524290 0.000004 0.000002 -12.238690 -569.201738 -149.223063 -181.684753 0.000001 -0.000003 -10.253702 931.083629 72.904920 -67.174528 -2.882603 -1.580099 6.695801 17.582941 9.050990 -31.196001 -4.235596 -0.000006 -0.000005 -136.821462 205.796605 -84.563561 -0.000003 0.000002 -10.709906 142.926093 -158.679870 159.277266 0.000002 0.000001 -11.716793 89.191178 17.177688 57.005643 2.279499 0.210406 -2.475504 410.818120 -33.873514 53.858419 -0.000007 -0.000013 -20.742800 196.292397 -20.993015 72.834043 -0.000006 -0.000002 -16.665995 -295.550700 12.292879 38.851564 -1.961905 0.232307 -2.727400 -986.598204 32.221185 -43.287365 -0.000004 0.000001 -20.526798 896.475552 150.307889 -252.271480 0.000004 0.000002 -16.867298 -38.327832 4.959022 -13.309974
44.958511 21.230194 29.521990 1157.137427 -23.993990 -10.290751 -0.637399 0.831600 5.390101 38.198878 10.322074 -3.867222 -0.000002 0.000001 4.429903 -9.696599 -1.532586 0.096655 -0.000004 0.000000 10.301395 331.989595 13.861052 10.785077 -0.000001 -0.000008 2.173905 -361.345912 0.351188 -3.973109 2.142396 -0.572706 5.717803 -4.857882 8.995801 1.453135 5.674002 -0.000010 0.000004 162.474955 -213.631788 168.546857 -0.000002 -0.000004 -12.238705 -570.028354 -149.557346 -181.908865 -0.000007 0.000002 -10.253704 931.787958 73.007960 -67.457701 -2.882595 -1.580096 6.695800 16.744794 8.377751 -31.138890 -4.235600 -0.000003 -0.000011 -136.888493 205.067824 -85.422492 -0.000003 -0.000002 -10.709899 142.630660 -158.627018 159.025519 0.000000 0.000004 -11.716803 89.283557 17.307298 57.157926 2.279498 0.210405 -2.475498 410.823174 -33.774350 53.842511 0.000000 -0.000011 -20.742800 196.218371 -20.999809 72.898664 -0.000010 -0.000000 -16.666000 -295.520647 12.334874 38.860269 -1.961903 0.232303 -2.727400 -986.494494 32.198909 -43.445047 -0.000008 -0.000003 -20.526800 896.475661 150.564321 -252.257683 0.000002 -0.000003 -16.867302 -38.413684 4.883072 -13.527058
44.971413 21.237198 29.518791 1157.174146 -24.131895 -10.272739 -0.637396 0.831609 5.390100 38.105619 10.468473 -3.896502 -0.000007 -0.000003 4.429903 -9.885820 -1.518424 0.093002 -0.000003 0.000002 10.301394 332.366922 14.080332 10.612516 0.000001 0.000001 2.173899 -361.597373 0.553376 -3.894573 2.142397 -0.572697 5.717796 -4.708159 8.784025 1.448086 5.674000 -0.000014 0.000007 162.817845 -213.643208 168.636565 -0.000003 0.000000 -12.238699 -570.909176 -150.025064 -182.098963 0.000002 -0.000001 -10.253698 932.632934 73.161551 -67.858974 -2.882599 -1.580091 6.695796 15.769841 7.589932 -31.063393 -4.235604 -0.000007 -0.000006 -136.956699 204.357853 -86.452812 -0.000002 0.000004 -10.709902 142.194826 -158.654202 158.659817 -0.000006 0.000005 -11.716801 89.677638 17.391842 57.239239 2.279501 0.210412 -2.475502 410.860030 -33.596498 53.835647 -0.000007 -0.000008 -20.742798 196.074213 -21.145135 72.947568 -0.000007 0.000002 -16.666000 -295.411255 12.371578 38.948887 -1.961902 0.232312 -2.727396 -986.435482 32.247055 -43.653904 -0.000007 -0.000002 -20.526798 896.582540 150.883387 -252.233367 -0.000002 -0.000002 -16.867300 -38.560455 4.781197 -13.792152
